<svg xmlns="http://www.w3.org/2000/svg" xmlns:xlink="http://www.w3.org/1999/xlink" width="156.2" height="44" viewBox="0 0 156.2 44">
  <defs>
    <clipPath id="clip-path">
      <rect id="Rectangle_16" data-name="Rectangle 16" width="156.2" height="44" transform="translate(1152 62)" fill="#fff" stroke="#707070" stroke-width="1"/>
    </clipPath>
    <clipPath id="clip-path-2">
      <rect id="Rectangle_1284" data-name="Rectangle 1284" width="156.2" height="44" fill="#fff" stroke="#707070" stroke-width="1"/>
    </clipPath>
  </defs>
  <g id="Mask_Group_6" data-name="Mask Group 6" transform="translate(-1152 -62)" clip-path="url(#clip-path)">
    <g id="Mask_Group_2933" data-name="Mask Group 2933" transform="translate(1152 62)" clip-path="url(#clip-path-2)">
      <g id="Layer_x0020_1" transform="translate(-7.07 -38.227)">
        <rect id="Rectangle_1285" data-name="Rectangle 1285" width="170.34" height="120.455" fill="none"/>
        <g id="_2556943978496" transform="translate(11.891 44.544)">
          <path id="Path_4542" data-name="Path 4542" d="M76.574,22.088V34.336l-.406.4-5.913,5.917-.406.4H59.427L55.5,44.979a3.27,3.27,0,0,1-1.119.815,3.315,3.315,0,0,1-3.707-.681v0l0,0a3.315,3.315,0,0,1-.977-2.348v-1.7H47.986a7.311,7.311,0,0,1-7.292-7.292V21.516l.406-.406L47.012,15.2l.406-.406h9.259v.118l0,.677a1.963,1.963,0,0,1-1.963,1.967H48.558L43.451,22.66v11.1A4.556,4.556,0,0,0,47.986,38.3h4.469v4.457a.566.566,0,0,0,.162.406l0,0a.566.566,0,0,0,.406.162.593.593,0,0,0,.235-.045.645.645,0,0,0,.195-.146l.053-.053,4.38-4.38L58.3,38.3H68.71l5.106-5.106V24.055a1.965,1.965,0,0,1,1.963-1.967h.795Zm-13.023-.827a1.378,1.378,0,0,1,1.951,0L71.4,27.154a1.386,1.386,0,0,1,0,1.951L65.5,34.993a1.378,1.378,0,0,1-1.951,0l-3.5-3.5,1.951-1.951,2.519,2.523,3.942-3.942-3.942-3.942L53.716,34.993a1.378,1.378,0,0,1-1.951,0L45.873,29.1a1.386,1.386,0,0,1,0-1.951l5.893-5.893a1.378,1.378,0,0,1,1.951,0l3.5,3.5-1.951,1.951-2.519-2.523L48.8,28.127l3.942,3.942Z" transform="translate(69.958 -14.792)" fill="#ee3147"/>
          <path id="Path_4543" data-name="Path 4543" d="M90.364,30.291H84.771V23.555A.607.607,0,0,0,84.215,23a.457.457,0,0,0-.414.187L80.35,26.633v2.79a.869.869,0,0,1-.868.868H77.008V23.555a.607.607,0,0,0-.56-.556.457.457,0,0,0-.414.187l-3.451,3.447v2.79a.868.868,0,0,1-.864.868H69.242V23.555A.607.607,0,0,0,68.686,23a.457.457,0,0,0-.414.187l-3.451,3.447v2.79a.868.868,0,0,1-.864.868h-5.6V24.9a3.47,3.47,0,0,0-3.46-3.455H48.444L39.6,30.291H37.023V23.555a.607.607,0,0,0-.56-.556.457.457,0,0,0-.414.187L32.6,26.633v2.79a.868.868,0,0,1-.864.868H29.216V23.555A.607.607,0,0,0,28.66,23a.465.465,0,0,0-.418.187l-3.451,3.447v2.79a.868.868,0,0,1-.864.868H19.636V24.9a3.487,3.487,0,0,0-.84-2.267l-.02-.016a2.421,2.421,0,0,1,0-3.423L21.9,16.068a2.421,2.421,0,0,1,3.423,0l2.4,2.4h0s.884.856,3.034,3.005a2.933,2.933,0,0,1,.876,2.085v.633l2.624-2.62a2.6,2.6,0,0,1,.835-.657,2.879,2.879,0,0,1,1.371-.333,3.1,3.1,0,0,1,2.093.892h.008a2.933,2.933,0,0,1,.876,2.085v3.472l7.292-7.292.71-.71H54.9A5.885,5.885,0,0,1,60.773,24.9v2.364l1.639-1.634.706-.71,3.358-3.354a2.67,2.67,0,0,1,.84-.657,2.867,2.867,0,0,1,1.371-.333,3.089,3.089,0,0,1,2.089.892h.012a2.95,2.95,0,0,1,.876,2.085v.588l2.579-2.575a2.6,2.6,0,0,1,.835-.657,2.879,2.879,0,0,1,1.371-.333,3.1,3.1,0,0,1,2.093.892h.008a2.933,2.933,0,0,1,.876,2.085v.588l2.579-2.575a2.647,2.647,0,0,1,.835-.657,2.884,2.884,0,0,1,1.375-.333,3.089,3.089,0,0,1,2.089.892h.008a3.173,3.173,0,0,1,.349.418L88.644,19.9a2.421,2.421,0,0,1,3.423,0l1.415,1.415L94.9,19.9a2.421,2.421,0,0,1,3.423,0l3.127,3.127a2.421,2.421,0,0,1,0,3.423l-3.127,3.127a2.421,2.421,0,0,1-3.423,0l-1.415-1.415-1.415,1.415A2.423,2.423,0,0,1,90.364,30.291Zm3.119-5.548h0L90.356,27.87l-3.127-3.127,3.127-3.127Zm0,0h0l3.127-3.127,3.127,3.127L96.61,27.87ZM20.488,20.906l3.127-3.127,3.127,3.127-3.127,3.127ZM40.616,37.133l.552.552a2.421,2.421,0,0,1,0,3.423l-3.127,3.127a2.421,2.421,0,0,1-3.423,0L33.2,42.815l-1.415,1.419a2.421,2.421,0,0,1-3.423,0l-3.127-3.127a2.421,2.421,0,0,1,0-3.423l.552-.552H20.63l-2.652,2.648a3.061,3.061,0,0,1-2.206.986,2.973,2.973,0,0,1-2.1-.872h0l0,0,0,0h0a2.973,2.973,0,0,1-.872-2.1v-.657H9.826a5.892,5.892,0,0,1-5.877-5.881V23.182l.71-.71L7.4,19.734l.71-.71h4.648v.625a1.8,1.8,0,0,1-1.8,1.8H9.108L6.37,24.183v7.069a3.47,3.47,0,0,0,3.455,3.46h5.386V37.79a.56.56,0,0,0,.973.373l3.451-3.451h7.848l1.732-1.728a1.734,1.734,0,0,0,1.728,1.728h4.348l1.732-1.728a1.732,1.732,0,0,0,1.728,1.728h2.693l8.846-8.846h3.642v4.425H49.324a3.467,3.467,0,0,0-3.46,3.455v.965h10.76l1.732-1.728a1.732,1.732,0,0,0,1.728,1.728h7.43l1.728-1.728a1.735,1.735,0,0,0,1.732,1.728h4.3l1.732-1.728a1.734,1.734,0,0,0,1.728,1.728h4.307l1.728-1.728A1.734,1.734,0,0,0,86.5,34.712H99.668l2.831-2.835V28.73a1.8,1.8,0,0,1,1.8-1.8h.621v5.946l-4.25,4.254ZM33.2,39.4h0l-3.127,3.127L26.949,39.4l3.127-3.127Zm0,0h0l3.127-3.127L39.457,39.4,36.33,42.523ZM30.749,21.47ZM10.791,30.291h4.421V25.867H10.791Z" transform="translate(-3.949 -13.651)" fill="#ee3147" fill-rule="evenodd"/>
          <path id="Path_4544" data-name="Path 4544" d="M22.017,24.7H20.573v3.9H19.312V24.7H17.868V23.576h4.149Zm1-1.123h3.857v1.046h-2.6v.88h2.373v1.01H24.28v.957h2.665V28.6H23.019Zm6.075,3.33a.73.73,0,0,0,.264.612,1.108,1.108,0,0,0,.649.17,1.26,1.26,0,0,0,.28-.028.847.847,0,0,0,.247-.089.519.519,0,0,0,.178-.158.416.416,0,0,0,.069-.239.343.343,0,0,0-.122-.272.921.921,0,0,0-.312-.183,3.425,3.425,0,0,0-.446-.138c-.162-.041-.337-.085-.511-.138a5.144,5.144,0,0,1-.511-.183,1.754,1.754,0,0,1-.454-.272,1.227,1.227,0,0,1-.324-.406A1.248,1.248,0,0,1,27.975,25a1.336,1.336,0,0,1,.178-.7,1.532,1.532,0,0,1,.466-.475,1.938,1.938,0,0,1,.637-.264,2.916,2.916,0,0,1,.689-.085,2.819,2.819,0,0,1,.71.093,1.988,1.988,0,0,1,.621.292,1.548,1.548,0,0,1,.438.5,1.467,1.467,0,0,1,.17.726H30.623a.525.525,0,0,0-.061-.284.561.561,0,0,0-.178-.187.842.842,0,0,0-.256-.1,1.355,1.355,0,0,0-.284-.032.963.963,0,0,0-.211.024.584.584,0,0,0-.195.069.412.412,0,0,0-.146.13.329.329,0,0,0-.057.207.283.283,0,0,0,.118.239,1.205,1.205,0,0,0,.316.162,4.209,4.209,0,0,0,.454.126q.249.055.511.134a4.313,4.313,0,0,1,.515.187,1.86,1.86,0,0,1,.45.276,1.259,1.259,0,0,1,.316.406,1.288,1.288,0,0,1,.122.58,1.611,1.611,0,0,1-.178.8,1.415,1.415,0,0,1-.475.515,2,2,0,0,1-.673.28,3.551,3.551,0,0,1-.779.085,3.194,3.194,0,0,1-.8-.1,1.9,1.9,0,0,1-.665-.316A1.6,1.6,0,0,1,28,27.729a1.805,1.805,0,0,1-.17-.823Zm3.991-3.33h1.858l.831,3.346h.012l.835-3.346h1.858V28.6H37.291V24.785h-.012L36.261,28.6H35.3l-1.014-3.812h-.016V28.6H33.085Zm6.716,0h1.257V28.6H39.8Zm2.567,0h1.294l1.683,3.095h.012V23.576h1.184V28.6H45.248l-1.679-3.131h-.012V28.6H42.369Zm6.562,2.51a2.463,2.463,0,0,0,.061.548,1.522,1.522,0,0,0,.195.479,1.064,1.064,0,0,0,.349.337,1.135,1.135,0,0,0,1.038,0,1.064,1.064,0,0,0,.349-.337,1.522,1.522,0,0,0,.195-.479,2.512,2.512,0,0,0,0-1.1,1.5,1.5,0,0,0-.195-.475,1.022,1.022,0,0,0-1.736,0,1.5,1.5,0,0,0-.195.475A2.472,2.472,0,0,0,48.931,26.087Zm-1.261,0a3.238,3.238,0,0,1,.158-1.026,2.37,2.37,0,0,1,.466-.827,2.141,2.141,0,0,1,.746-.56,2.636,2.636,0,0,1,2.028,0,2.141,2.141,0,0,1,.746.56,2.435,2.435,0,0,1,.466.827,3.394,3.394,0,0,1,0,2.048,2.435,2.435,0,0,1-.466.827,2.093,2.093,0,0,1-.746.56,2.589,2.589,0,0,1-2.028,0,2.093,2.093,0,0,1-.746-.56,2.37,2.37,0,0,1-.466-.827A3.212,3.212,0,0,1,47.669,26.087Zm5.909,1.2H54.84V28.6H53.579Zm5.6-1.918a.826.826,0,0,0-.316-.576,1.051,1.051,0,0,0-.661-.2,1.035,1.035,0,0,0-.519.126,1.076,1.076,0,0,0-.349.341,1.5,1.5,0,0,0-.195.475,2.513,2.513,0,0,0,0,1.1,1.522,1.522,0,0,0,.195.479,1.105,1.105,0,0,0,.349.337,1,1,0,0,0,.519.126.924.924,0,0,0,.694-.247,1.034,1.034,0,0,0,.284-.681h1.261a2.416,2.416,0,0,1-.207.868,1.957,1.957,0,0,1-.466.649,2.025,2.025,0,0,1-.685.4,2.6,2.6,0,0,1-.852.138,2.362,2.362,0,0,1-1-.207,2.228,2.228,0,0,1-.762-.56,2.54,2.54,0,0,1-.483-.827,3.163,3.163,0,0,1,0-2.048,2.54,2.54,0,0,1,.483-.827,2.281,2.281,0,0,1,.762-.56,2.423,2.423,0,0,1,1-.2,2.507,2.507,0,0,1,.783.126,2.276,2.276,0,0,1,.7.369,2.016,2.016,0,0,1,.511.6,1.769,1.769,0,0,1,.215.807Zm3.455.718a2.462,2.462,0,0,0,.061.548,1.439,1.439,0,0,0,.2.479,1.027,1.027,0,0,0,.349.337,1.126,1.126,0,0,0,1.034,0,1.064,1.064,0,0,0,.349-.337,1.439,1.439,0,0,0,.2-.479,2.512,2.512,0,0,0,0-1.1,1.417,1.417,0,0,0-.2-.475,1.037,1.037,0,0,0-.349-.341,1.126,1.126,0,0,0-1.034,0,1,1,0,0,0-.349.341,1.417,1.417,0,0,0-.2.475A2.472,2.472,0,0,0,62.631,26.087Zm-1.261,0a3.128,3.128,0,0,1,.162-1.026,2.427,2.427,0,0,1,.462-.827,2.157,2.157,0,0,1,.75-.56,2.626,2.626,0,0,1,2.024,0,2.156,2.156,0,0,1,.75.56,2.427,2.427,0,0,1,.462.827,3.394,3.394,0,0,1,0,2.048,2.427,2.427,0,0,1-.462.827,2.108,2.108,0,0,1-.75.56,2.579,2.579,0,0,1-2.024,0,2.108,2.108,0,0,1-.75-.56,2.426,2.426,0,0,1-.462-.827A3.1,3.1,0,0,1,61.37,26.087Zm5.909-2.51h1.858l.835,3.346h.012l.831-3.346h1.858V28.6H71.489V24.785h-.012L70.458,28.6H69.5l-1.018-3.812h-.012V28.6H67.279Z" transform="translate(24.048 2.664)" fill="#96989a" fill-rule="evenodd"/>
          <rect id="Rectangle_1286" data-name="Rectangle 1286" width="1.371" height="25.912" transform="translate(105.124 5.386)" fill="#bdbfc1"/>
        </g>
      </g>
    </g>
  </g>
</svg>
